<?xml version="1.0" encoding="UTF-8"?>
<svg xmlns="http://www.w3.org/2000/svg" xmlns:xlink="http://www.w3.org/1999/xlink" width="2001" height="2001" viewBox="0 0 2001 2001">

<path fill-rule="nonzero" fill="rgb(0%, 0%, 0%)" fill-opacity="1" d="M 1110.890625 1296.117188 L 1107.488281 1299.585938 C 1066.691406 1340.609375 1017.308594 1361.117188 958.921875 1361.117188 L 569.402344 1361.117188 L 569.402344 1240.753906 L 959.164062 1240.753906 C 971.558594 1240.753906 983.269531 1238.5 994.546875 1233.980469 C 1005.578125 1229.472656 1015.28125 1223.164062 1023.621094 1215.046875 L 1026.671875 1211.902344 L 1110.890625 1296.117188 "/>
<path fill-rule="nonzero" fill="rgb(0%, 0%, 0%)" fill-opacity="1" d="M 779.273438 1059.503906 C 721.109375 1059.503906 671.527344 1038.992188 630.726562 998.191406 C 589.914062 957.398438 569.402344 907.570312 569.402344 848.738281 C 569.402344 791.261719 589.914062 742.121094 630.726562 701.101562 C 670.839844 659.621094 720.441406 638.878906 779.273438 638.878906 L 1169.929688 638.878906 L 1048.410156 759.25 L 778.828125 759.25 C 766.464844 759.25 754.722656 761.570312 743.652344 766.019531 C 732.4375 770.558594 722.691406 777.058594 714.355469 785.398438 C 706.015625 793.738281 699.703125 803.429688 695.183594 814.46875 C 690.679688 825.53125 688.425781 837.03125 688.425781 848.738281 C 688.425781 873.769531 696.988281 895.398438 714.355469 913.429688 C 731.703125 931.46875 753.347656 940.5 778.828125 940.5 L 958.699219 940.5 C 959.253906 940.5 959.804688 940.5 960.355469 940.5 L 1263.078125 638.878906 L 1432.601562 638.878906 L 1071.480469 1000 L 1432.601562 1361.117188 L 1263.078125 1361.117188 L 959.492188 1059.507812 L 959.164062 1059.503906 L 779.273438 1059.503906 "/>
</svg>
